<svg width="923" height="308" viewBox="0 0 923 308" fill="none" xmlns="http://www.w3.org/2000/svg">
<mask id="path-1-inside-1_288_1673" fill="white">
<rect x="50" y="50" width="823" height="208" rx="8"/>
</mask>
<rect x="50" y="50" width="823" height="208" rx="8" stroke="black" stroke-width="40" mask="url(#path-1-inside-1_288_1673)"/>
<path d="M157.896 185.056C154.552 185.056 151.707 184.381 149.36 183.032C147.072 181.624 145.371 179.717 144.256 177.312H143.728L142.936 184H136.864V120.64H144.256V146.6C145.371 144.664 147.101 142.963 149.448 141.496C151.853 140.029 154.669 139.296 157.896 139.296C161.651 139.296 164.965 140.176 167.84 141.936C170.715 143.696 172.973 146.277 174.616 149.68C176.259 153.083 177.08 157.219 177.08 162.088C177.08 167.016 176.259 171.211 174.616 174.672C172.973 178.075 170.685 180.656 167.752 182.416C164.877 184.176 161.592 185.056 157.896 185.056ZM156.928 178.016C160.624 178.016 163.645 176.725 165.992 174.144C168.397 171.504 169.6 167.515 169.6 162.176C169.6 156.837 168.397 152.877 165.992 150.296C163.645 147.656 160.624 146.336 156.928 146.336C153.232 146.336 150.181 147.656 147.776 150.296C145.371 152.877 144.168 156.837 144.168 162.176C144.168 167.515 145.371 171.504 147.776 174.144C150.181 176.725 153.232 178.016 156.928 178.016ZM192.798 184V177.664H203.974V148.888C203.974 147.421 203.27 146.688 201.862 146.688H193.942V140.352H204.59C206.526 140.352 208.08 140.88 209.254 141.936C210.427 142.992 211.014 144.547 211.014 146.6V148.448H211.366C212.07 145.515 213.39 143.256 215.326 141.672C217.32 140.088 220.078 139.296 223.598 139.296H231.606V147.128H222.542C218.963 147.128 216.206 148.331 214.27 150.736C212.334 153.083 211.366 156.104 211.366 159.8V177.664H225.094V184H192.798ZM264.131 185.056C258.851 185.056 254.862 183.472 252.163 180.304C249.465 177.136 248.115 172.56 248.115 166.576V140.352H255.507V165.696C255.507 169.568 256.358 172.619 258.059 174.848C259.819 177.019 262.459 178.104 265.979 178.104C269.499 178.104 272.462 176.931 274.867 174.584C277.273 172.179 278.475 168.747 278.475 164.288V140.352H285.867V184H279.707L278.915 177.4H278.475C277.302 179.512 275.454 181.331 272.931 182.856C270.409 184.323 267.475 185.056 264.131 185.056ZM327.193 184C323.204 184 320.065 183.032 317.777 181.096C315.489 179.16 314.345 175.669 314.345 170.624V146.688H303.257V140.352H309.857C312.849 140.352 314.58 138.885 315.049 135.952L316.281 129.176H321.737V140.352H339.161V146.688H321.737V170.624C321.737 173.088 322.294 174.819 323.409 175.816C324.582 176.813 326.577 177.312 329.393 177.312H339.161V184H327.193ZM374.326 185.056C370.865 185.056 367.99 184.44 365.702 183.208C363.414 181.976 361.713 180.363 360.598 178.368C359.484 176.315 358.926 174.085 358.926 171.68C358.926 167.221 360.54 163.848 363.766 161.56C367.052 159.213 371.422 158.04 376.878 158.04H388.846V157.16C388.846 149.533 385.356 145.72 378.374 145.72C375.558 145.72 373.182 146.336 371.246 147.568C369.369 148.8 368.166 150.736 367.638 153.376H360.07C360.364 150.443 361.332 147.92 362.974 145.808C364.676 143.696 366.846 142.083 369.486 140.968C372.126 139.853 375.089 139.296 378.374 139.296C384.593 139.296 389.111 140.939 391.927 144.224C394.801 147.451 396.239 151.763 396.239 157.16V184H389.903L389.287 177.224H388.671C387.38 179.336 385.649 181.184 383.478 182.768C381.366 184.293 378.316 185.056 374.326 185.056ZM375.646 178.544C378.462 178.544 380.838 177.869 382.774 176.52C384.769 175.171 386.265 173.381 387.263 171.152C388.318 168.923 388.846 166.488 388.846 163.848H377.494C373.505 163.848 370.689 164.523 369.046 165.872C367.462 167.221 366.67 169.011 366.67 171.24C366.67 173.528 367.433 175.317 368.958 176.608C370.484 177.899 372.713 178.544 375.646 178.544ZM413.628 184V177.664H428.5V129.176C428.5 127.709 427.767 126.976 426.3 126.976H415.212V120.64H428.06C430.583 120.64 432.519 121.315 433.868 122.664C435.217 124.013 435.892 125.949 435.892 128.472V177.664H450.764V184H413.628ZM488.306 132.608C486.546 132.608 485.079 132.021 483.906 130.848C482.732 129.675 482.146 128.267 482.146 126.624C482.146 124.923 482.732 123.515 483.906 122.4C485.079 121.227 486.546 120.64 488.306 120.64C490.007 120.64 491.444 121.227 492.618 122.4C493.85 123.515 494.466 124.923 494.466 126.624C494.466 128.267 493.85 129.675 492.618 130.848C491.444 132.021 490.007 132.608 488.306 132.608ZM471.234 184V177.664H485.138V148.888C485.138 147.421 484.404 146.688 482.938 146.688H472.73V140.352H484.698C489.919 140.352 492.53 142.963 492.53 148.184V177.664H506.434V184H471.234ZM544.679 185.056C539.106 185.056 534.589 183.765 531.127 181.184C527.725 178.544 525.818 174.936 525.407 170.36H533.063C533.415 172.765 534.589 174.731 536.583 176.256C538.637 177.781 541.394 178.544 544.855 178.544C548.141 178.544 550.575 177.84 552.159 176.432C553.802 175.024 554.623 173.411 554.623 171.592C554.623 169.128 553.655 167.456 551.719 166.576C549.783 165.637 546.879 164.933 543.007 164.464C538.373 163.936 534.53 162.675 531.479 160.68C528.429 158.685 526.903 155.693 526.903 151.704C526.903 148.125 528.399 145.163 531.391 142.816C534.383 140.469 538.461 139.296 543.623 139.296C548.727 139.296 552.746 140.469 555.679 142.816C558.613 145.104 560.285 148.389 560.695 152.672H553.391C553.215 150.56 552.189 148.888 550.311 147.656C548.493 146.365 546.205 145.72 543.447 145.72C540.573 145.72 538.343 146.277 536.759 147.392C535.175 148.448 534.383 149.856 534.383 151.616C534.383 153.376 535.263 154.843 537.023 156.016C538.842 157.131 541.687 157.864 545.559 158.216C548.61 158.568 551.397 159.155 553.919 159.976C556.442 160.797 558.437 162.088 559.903 163.848C561.429 165.608 562.191 168.072 562.191 171.24C562.25 173.88 561.517 176.256 559.991 178.368C558.525 180.421 556.471 182.064 553.831 183.296C551.191 184.469 548.141 185.056 544.679 185.056ZM576.501 184V140.352H582.573L583.365 145.456H583.805C584.568 143.696 585.712 142.229 587.237 141.056C588.821 139.883 590.728 139.296 592.957 139.296C595.186 139.296 597.064 139.853 598.589 140.968C600.173 142.024 601.317 143.52 602.021 145.456H602.373C603.136 143.696 604.368 142.229 606.069 141.056C607.77 139.883 609.824 139.296 612.229 139.296C615.573 139.296 618.066 140.44 619.709 142.728C621.41 144.957 622.261 147.949 622.261 151.704V184H615.045V152.848C615.045 150.736 614.605 149.064 613.725 147.832C612.904 146.6 611.554 145.984 609.677 145.984C607.741 145.984 606.157 146.717 604.925 148.184C603.693 149.651 603.077 151.733 603.077 154.432V184H595.773V152.848C595.773 150.736 595.362 149.064 594.541 147.832C593.72 146.6 592.37 145.984 590.493 145.984C588.557 145.984 586.944 146.717 585.653 148.184C584.421 149.651 583.805 151.733 583.805 154.432V184H576.501ZM640.531 156.368V150.032H669.571V156.368H640.531ZM707.376 185.056C702.096 185.056 698.107 183.472 695.408 180.304C692.71 177.136 691.36 172.56 691.36 166.576V140.352H698.752V165.696C698.752 169.568 699.603 172.619 701.304 174.848C703.064 177.019 705.704 178.104 709.224 178.104C712.744 178.104 715.707 176.931 718.112 174.584C720.518 172.179 721.72 168.747 721.72 164.288V140.352H729.112V184H722.952L722.16 177.4H721.72C720.547 179.512 718.699 181.331 716.176 182.856C713.654 184.323 710.72 185.056 707.376 185.056ZM765.334 132.608C763.574 132.608 762.107 132.021 760.934 130.848C759.761 129.675 759.174 128.267 759.174 126.624C759.174 124.923 759.761 123.515 760.934 122.4C762.107 121.227 763.574 120.64 765.334 120.64C767.035 120.64 768.473 121.227 769.646 122.4C770.878 123.515 771.494 124.923 771.494 126.624C771.494 128.267 770.878 129.675 769.646 130.848C768.473 132.021 767.035 132.608 765.334 132.608ZM748.262 184V177.664H762.166V148.888C762.166 147.421 761.433 146.688 759.966 146.688H749.758V140.352H761.726C766.947 140.352 769.558 142.963 769.558 148.184V177.664H783.462V184H748.262Z" fill="black"/>
</svg>
