<svg width="20" height="20" viewBox="0 0 20 20" fill="none" xmlns="http://www.w3.org/2000/svg">
<path d="M10 13.75C10.2125 13.75 10.3908 13.678 10.5348 13.534C10.6788 13.39 10.7505 13.212 10.75 13C10.75 12.7875 10.678 12.6092 10.534 12.4652C10.39 12.3212 10.212 12.2495 10 12.25C9.78751 12.25 9.60926 12.322 9.46526 12.466C9.32126 12.61 9.24951 12.788 9.25001 13C9.25001 13.2125 9.32201 13.3907 9.46601 13.5347C9.61001 13.6787 9.78801 13.7505 10 13.75ZM10 10.75C10.2125 10.75 10.3908 10.678 10.5348 10.534C10.6788 10.39 10.7505 10.212 10.75 10V7C10.75 6.7875 10.678 6.60925 10.534 6.46525C10.39 6.32125 10.212 6.2495 10 6.25C9.78751 6.25 9.60926 6.322 9.46526 6.466C9.32126 6.61 9.24951 6.788 9.25001 7V10C9.25001 10.2125 9.32201 10.3907 9.46601 10.5347C9.61001 10.6787 9.78801 10.7505 10 10.75ZM10 17.5C8.96251 17.5 7.98751 17.303 7.07501 16.909C6.16251 16.515 5.36876 15.9807 4.69376 15.3062C4.01876 14.6312 3.48451 13.8375 3.09101 12.925C2.69751 12.0125 2.50051 11.0375 2.50001 10C2.50001 8.9625 2.69701 7.9875 3.09101 7.075C3.48501 6.1625 4.01926 5.36875 4.69376 4.69375C5.36876 4.01875 6.16251 3.4845 7.07501 3.091C7.98751 2.6975 8.96251 2.5005 10 2.5C11.0375 2.5 12.0125 2.697 12.925 3.091C13.8375 3.485 14.6313 4.01925 15.3063 4.69375C15.9813 5.36875 16.5158 6.1625 16.9098 7.075C17.3038 7.9875 17.5005 8.9625 17.5 10C17.5 11.0375 17.303 12.0125 16.909 12.925C16.515 13.8375 15.9808 14.6312 15.3063 15.3062C14.6313 15.9812 13.8375 16.5157 12.925 16.9097C12.0125 17.3037 11.0375 17.5005 10 17.5ZM10 16C11.675 16 13.0938 15.4187 14.2563 14.2562C15.4188 13.0937 16 11.675 16 10C16 8.325 15.4188 6.90625 14.2563 5.74375C13.0938 4.58125 11.675 4 10 4C8.32501 4 6.90626 4.58125 5.74376 5.74375C4.58126 6.90625 4.00001 8.325 4.00001 10C4.00001 11.675 4.58126 13.0937 5.74376 14.2562C6.90626 15.4187 8.32501 16 10 16Z" fill="#002D62"/>
</svg>
