<svg width="923" height="308" viewBox="0 0 923 308" fill="none" xmlns="http://www.w3.org/2000/svg">
<mask id="path-1-inside-1_288_1673" fill="white">
<rect x="50" y="50" width="823" height="208" rx="8"/>
</mask>
<rect x="50" y="50" width="823" height="208" rx="8" stroke="black" stroke-width="40" mask="url(#path-1-inside-1_288_1673)"/>
<path d="M158.776 185.056C155.549 185.056 152.821 184.411 150.592 183.12C148.421 181.771 146.749 179.923 145.576 177.576H145.048L144.256 184H136.248V120.64H145.576V145.984C146.632 144.224 148.304 142.669 150.592 141.32C152.88 139.971 155.608 139.296 158.776 139.296C162.413 139.296 165.669 140.176 168.544 141.936C171.419 143.637 173.677 146.189 175.32 149.592C177.021 152.995 177.872 157.189 177.872 162.176C177.872 167.163 177.021 171.357 175.32 174.76C173.677 178.163 171.419 180.744 168.544 182.504C165.669 184.205 162.413 185.056 158.776 185.056ZM156.84 176.168C160.184 176.168 162.941 175.024 165.112 172.736C167.341 170.389 168.456 166.899 168.456 162.264C168.456 157.571 167.341 154.051 165.112 151.704C162.941 149.357 160.184 148.184 156.84 148.184C153.496 148.184 150.709 149.357 148.48 151.704C146.309 153.992 145.224 157.483 145.224 162.176C145.224 166.811 146.309 170.301 148.48 172.648C150.709 174.995 153.496 176.168 156.84 176.168ZM192.182 184V175.904H202.83V151.352C202.83 149.416 201.891 148.448 200.014 148.448H193.062V140.352H203.534C205.939 140.352 207.904 141.056 209.43 142.464C210.955 143.813 211.718 145.72 211.718 148.184V149.24H212.158C212.803 145.955 214.182 143.491 216.294 141.848C218.464 140.147 221.603 139.296 225.71 139.296H232.486V149.152H222.982C219.52 149.152 216.851 150.355 214.974 152.76C213.096 155.165 212.158 158.04 212.158 161.384V175.904H225.71V184H192.182ZM263.339 185.056C258.059 185.056 254.041 183.443 251.283 180.216C248.585 176.931 247.235 172.179 247.235 165.96V140.352H256.563V164.816C256.563 168.395 257.326 171.211 258.851 173.264C260.435 175.259 262.841 176.256 266.067 176.256C269.294 176.256 271.993 175.171 274.163 173C276.334 170.829 277.419 167.691 277.419 163.584V140.352H286.747V184H278.651L277.859 177.488H277.419C276.246 179.6 274.427 181.389 271.963 182.856C269.499 184.323 266.625 185.056 263.339 185.056ZM327.369 184C323.086 184 319.684 182.973 317.161 180.92C314.638 178.808 313.377 175.083 313.377 169.744V148.272H302.377V140.352H308.889C311.881 140.352 313.641 138.885 314.169 135.952L315.489 128.912H322.705V140.352H339.953V148.272H322.705V169.568C322.705 171.856 323.204 173.469 324.201 174.408C325.257 175.288 327.046 175.728 329.569 175.728H339.777V184H327.369ZM374.062 185.056C370.601 185.056 367.697 184.469 365.35 183.296C363.004 182.064 361.244 180.451 360.07 178.456C358.897 176.403 358.31 174.173 358.31 171.768C358.31 167.485 359.865 164.141 362.974 161.736C366.142 159.331 370.601 158.128 376.35 158.128H387.614V157.16C387.614 150.589 384.564 147.304 378.462 147.304C375.94 147.304 373.798 147.861 372.038 148.976C370.337 150.032 369.193 151.763 368.606 154.168H359.278C359.748 149.592 361.713 145.984 365.174 143.344C368.694 140.645 373.124 139.296 378.462 139.296C384.916 139.296 389.609 140.88 392.543 144.048C395.476 147.216 396.943 151.587 396.943 157.16V184H389.022L388.23 177.576H387.614C386.324 179.629 384.71 181.389 382.774 182.856C380.838 184.323 377.934 185.056 374.062 185.056ZM375.822 177.224C379.636 177.224 382.481 176.08 384.358 173.792C386.294 171.445 387.351 168.483 387.526 164.904H377.318C373.974 164.904 371.598 165.461 370.19 166.576C368.841 167.632 368.166 169.128 368.166 171.064C368.166 173 368.841 174.525 370.19 175.64C371.598 176.696 373.476 177.224 375.822 177.224ZM413.012 184V175.904H427.62V131.64C427.62 129.704 426.681 128.736 424.804 128.736H414.244V120.64H426.476C429.879 120.64 432.46 121.549 434.22 123.368C436.039 125.128 436.948 127.709 436.948 131.112V175.904H451.644V184H413.012ZM487.954 133.664C485.9 133.664 484.17 133.019 482.762 131.728C481.412 130.379 480.738 128.736 480.738 126.8C480.738 124.864 481.412 123.251 482.762 121.96C484.17 120.669 485.9 120.024 487.954 120.024C490.066 120.024 491.796 120.669 493.146 121.96C494.554 123.251 495.258 124.864 495.258 126.8C495.258 128.736 494.554 130.379 493.146 131.728C491.796 133.019 490.066 133.664 487.954 133.664ZM470.442 184V175.904H484.17V151.352C484.17 149.416 483.231 148.448 481.354 148.448H471.674V140.352H483.026C486.663 140.352 489.303 141.203 490.946 142.904C492.647 144.547 493.498 147.187 493.498 150.824V175.904H507.226V184H470.442ZM544.591 185.056C538.842 185.056 534.266 183.707 530.863 181.008C527.461 178.309 525.525 174.731 525.055 170.272H534.647C534.999 172.325 536.026 173.997 537.727 175.288C539.487 176.579 541.805 177.224 544.679 177.224C547.437 177.224 549.549 176.667 551.015 175.552C552.541 174.379 553.303 173.029 553.303 171.504C553.303 169.275 552.394 167.749 550.575 166.928C548.815 166.107 546.205 165.491 542.743 165.08C539.751 164.728 537.023 164.053 534.559 163.056C532.154 162 530.247 160.592 528.839 158.832C527.431 157.013 526.727 154.755 526.727 152.056C526.727 148.243 528.223 145.163 531.215 142.816C534.207 140.469 538.373 139.296 543.711 139.296C549.05 139.296 553.186 140.499 556.119 142.904C559.053 145.309 560.754 148.595 561.223 152.76H552.247C552.013 151 551.103 149.621 549.519 148.624C547.935 147.568 545.97 147.04 543.623 147.04C541.218 147.04 539.311 147.509 537.903 148.448C536.495 149.328 535.791 150.501 535.791 151.968C535.791 155.136 539.194 157.072 545.999 157.776C549.226 158.128 552.101 158.744 554.623 159.624C557.146 160.445 559.141 161.765 560.607 163.584C562.074 165.344 562.807 167.837 562.807 171.064C562.866 173.704 562.103 176.08 560.519 178.192C558.994 180.304 556.853 181.976 554.095 183.208C551.397 184.44 548.229 185.056 544.591 185.056ZM575.445 184V140.352H583.189L583.981 145.456H584.421C585.184 143.637 586.357 142.171 587.941 141.056C589.525 139.883 591.402 139.296 593.573 139.296C595.685 139.296 597.533 139.824 599.117 140.88C600.701 141.936 601.874 143.461 602.637 145.456H602.989C603.752 143.696 604.954 142.229 606.597 141.056C608.24 139.883 610.264 139.296 612.669 139.296C615.896 139.296 618.33 140.352 619.973 142.464C621.674 144.576 622.525 147.539 622.525 151.352V184H613.549V153.2C613.549 151.44 613.168 150.061 612.405 149.064C611.701 148.008 610.557 147.48 608.973 147.48C607.389 147.48 606.069 148.096 605.013 149.328C604.016 150.56 603.517 152.291 603.517 154.52V184H594.453V153.2C594.453 151.44 594.101 150.061 593.397 149.064C592.693 148.008 591.549 147.48 589.965 147.48C588.381 147.48 587.061 148.096 586.005 149.328C584.949 150.56 584.421 152.291 584.421 154.52V184H575.445ZM639.915 157.16V149.24H670.187V157.16H639.915ZM706.584 185.056C701.304 185.056 697.286 183.443 694.528 180.216C691.83 176.931 690.48 172.179 690.48 165.96V140.352H699.808V164.816C699.808 168.395 700.571 171.211 702.096 173.264C703.68 175.259 706.086 176.256 709.312 176.256C712.539 176.256 715.238 175.171 717.408 173C719.579 170.829 720.664 167.691 720.664 163.584V140.352H729.992V184H721.896L721.104 177.488H720.664C719.491 179.6 717.672 181.389 715.208 182.856C712.744 184.323 709.87 185.056 706.584 185.056ZM764.982 133.664C762.929 133.664 761.198 133.019 759.79 131.728C758.441 130.379 757.766 128.736 757.766 126.8C757.766 124.864 758.441 123.251 759.79 121.96C761.198 120.669 762.929 120.024 764.982 120.024C767.094 120.024 768.825 120.669 770.174 121.96C771.582 123.251 772.286 124.864 772.286 126.8C772.286 128.736 771.582 130.379 770.174 131.728C768.825 133.019 767.094 133.664 764.982 133.664ZM747.47 184V175.904H761.198V151.352C761.198 149.416 760.259 148.448 758.382 148.448H748.702V140.352H760.054C763.691 140.352 766.331 141.203 767.974 142.904C769.675 144.547 770.526 147.187 770.526 150.824V175.904H784.254V184H747.47Z" fill="black"/>
</svg>
